<svg width="256" height="256" viewBox="0 0 256 256" fill="none" xmlns="http://www.w3.org/2000/svg">
  <defs>
    <linearGradient id="bg" x1="36" y1="24" x2="220" y2="232" gradientUnits="userSpaceOnUse">
      <stop stop-color="#162028" />
      <stop offset="1" stop-color="#0A0E11" />
    </linearGradient>
    <linearGradient id="frame" x1="36" y1="24" x2="220" y2="232" gradientUnits="userSpaceOnUse">
      <stop stop-color="#D09368" stop-opacity="0.72" />
      <stop offset="1" stop-color="#61B7AE" stop-opacity="0.42" />
    </linearGradient>
    <linearGradient id="mark" x1="88" y1="56" x2="168" y2="204" gradientUnits="userSpaceOnUse">
      <stop stop-color="#F7D4B8" />
      <stop offset="1" stop-color="#D09368" />
    </linearGradient>
    <radialGradient id="glow" cx="0" cy="0" r="1" gradientUnits="userSpaceOnUse" gradientTransform="translate(190 68) rotate(130) scale(58)">
      <stop stop-color="#61B7AE" stop-opacity="0.95" />
      <stop offset="1" stop-color="#61B7AE" stop-opacity="0" />
    </radialGradient>
    <filter id="shadow" x="10" y="12" width="236" height="236" filterUnits="userSpaceOnUse" color-interpolation-filters="sRGB">
      <feFlood flood-opacity="0" result="BackgroundImageFix" />
      <feColorMatrix in="SourceAlpha" type="matrix" values="0 0 0 0 0 0 0 0 0 0 0 0 0 0 0 0 0 0 127 0" result="hardAlpha" />
      <feOffset dy="12" />
      <feGaussianBlur stdDeviation="12" />
      <feComposite in2="hardAlpha" operator="out" />
      <feColorMatrix type="matrix" values="0 0 0 0 0.0156863 0 0 0 0 0.0313725 0 0 0 0 0.054902 0 0 0 0.4 0" />
      <feBlend mode="normal" in2="BackgroundImageFix" result="effect1_dropShadow_1_1" />
      <feBlend mode="normal" in="SourceGraphic" in2="effect1_dropShadow_1_1" result="shape" />
    </filter>
  </defs>
  <g filter="url(#shadow)">
    <rect x="20" y="20" width="216" height="216" rx="60" fill="url(#bg)" />
    <rect x="20.75" y="20.75" width="214.5" height="214.5" rx="59.25" stroke="url(#frame)" stroke-width="1.5" />
  </g>
  <circle cx="188" cy="68" r="34" fill="url(#glow)" />
  <path d="M128 52L52 204H89L104 170H152L167 204H204L128 52ZM117 137L128 108L139 137H117Z" fill="url(#mark)" />
  <path d="M97 154C97 149.582 100.582 146 105 146H162C166.418 146 170 149.582 170 154C170 158.418 166.418 162 162 162H105C100.582 162 97 158.418 97 154Z" fill="#61B7AE" />
  <circle cx="176" cy="154" r="10" fill="#61B7AE" />
</svg>
